<svg xmlns="http://www.w3.org/2000/svg" xmlns:xlink="http://www.w3.org/1999/xlink" viewBox="0 0 519.6 600"><defs><style>.a{fill:url(#a);}.b{fill:#2d251d;}</style><radialGradient id="a" cx="259.8" cy="302" r="280.62" gradientTransform="matrix(1, 0, 0, -1, 0, 602)" gradientUnits="userSpaceOnUse"><stop offset="0" stop-color="#f7e7c3"/><stop offset="0.49" stop-color="#f4dfad"/><stop offset="1" stop-color="#d3bd94"/></radialGradient></defs><path class="a" d="M498.9,138,302.5,24.6,259.8,0,217.2,24.6,20.7,138,0,150V450l20.7,12L219.6,576.8,259.8,600,300,576.8,498.9,462l20.7-12V150Z"/><path class="b" d="M498.9,138,302.5,24.6,259.8,0,217.2,24.6,20.7,138,0,150V450l20.7,12L219.6,576.8,259.8,600,300,576.8,498.9,462l20.7-12V150Zm0,300.7-239.1,138L20.7,438.7V162.6l239.1-138,239.1,138Z"/><path class="b" d="M55.6,342.3c-16-1.77-2.06-12.89,3.25-19.22.43-1.6,7,.87,6.18,3-3.74,3.06-9,6-11.24,10.72,23.09-.15,45.56-24,57.79-42.81-45.52,2-24.79-30.08,5.57-9.57,5.24-8.76,11.14-18.16,11.17-28.94.31-2.77-.82-7.57,3.05-7.85,5.88,10.37-5,30.12-10,40.14C139.5,285.83,154,275.83,159.57,261c6.68-12.18-8.47-24.9-18.25-30.52-15.15-6.8-37.44-12.2-53.79-5.47-14.68,4-32.91,17.56-26.61,34.8C71,283.57,109.76,267.19,110,247.4c-5.88-.28-9.07,4.35-13.22,6.4C88,250.56,107,240.42,111.69,242.44c17.05,14.15-21.37,36.8-32.79,34.36-12.72-.5-24.78-11.46-23.5-25.7,1-19.87,21.71-28.49,37.35-32.22,51-10.37,110.46,38.22,43.72,70.37-9,4.63-14.11-.91-5.66,8.56,9.64,11.26,21.26,28.41,38.69,28.89,3,.3,4.25-1,6.6-2.1,2.34.2,6.45,3,2.86,4.71-36.06,12.21-47.22-37.18-62.33-35.24C103.93,315.67,81.92,338.24,55.6,342.3Zm34.11-56.47C97,291,106,289.59,114.2,289.41a.31.31,0,0,1,0-.08C107.14,285.13,96.86,279.8,89.71,285.83Z"/><path class="b" d="M212.3,387.6a2.64,2.64,0,0,1-2.53-3c10.55-25.71,27.86-57.66,38-83.37-10.47,4.7-29,25.45-34.82,5.32-3.54,2.54-15.47,11.14-18.51,14.24-.39.64-1.71.31-2.29.39-6.06-1.86,1.11-5.85,6.65-10.54,5.74-4.76,7.62-5.9,12.4-10.05-.48-.46-.13-9.57-1.95-8.61-14.5,1.23-52.87,45.12-51,7.72,3-9.33,8.56-19.09,19.68-18.52,2-.15,3.47,1.61,3.8,3.7-1,8.88-11.32,17.19-18.3,19.5-2.22,12.82,16.25-.27,20.9-3.78,8.87-5.69,17-13.54,28.25-14.15,3.23,2,2.06,8.17,3.8,11C219,297,230.09,283.05,232,283.7c9.86.95-13.08,17.3-14.64,20,.64,14,14.72,1.82,21.34-2.18,23.8-14.64,20-34.58,29.5-34.5,3.1-.09,2.86,3,2.5,5-.4,5-5.35,8.78-8.1,13.12-6,6.9-9,14.56-12.21,22.66,14.64-15.49,44.79-42.5,25.11.32,3.79-1.85,7.35-4.95,11.24-6.8,4.13-7,8.38-15.77,17.66-15.91,1.42-.34,3.53,1.71,3.9,2.94-.34,9.22-8.8,13.66-15.13,16.19a1.75,1.75,0,0,0-1.15.65c1.46,10.71,13.71,1.13,19-2.49,5.62-10.63,13.64-22.77,27.58-24,20.78,1.77,1.25,26.14-5.2,15.8-1.21-5.14,7.22-10.94,5.22-3,3-1.06,7.7-8,1.38-7.77-12,.77-26.39,14.09-22.12,26.33,11.41,27.82,65.57-27.86,73.39-47.48-15.5-3-83.06,2.55-79-19.32-.39-6.69,21.06-19.4,26.35-15.75.32.94,1,2.82-.28,3.28-5.13.82-29.67,11.1-18.79,18.05,19.9,7.41,52.28,7.44,73.86,8.77,3.66-2.82,2.85-8.44,7.42-11.16,1.8-2.07,2.34-5.26,5.44-6.24,11.37-1.86.79,13.58-1.41,17.88,8.39-.91,37.19.31,46.13.34,4.72,1.25,27.63-5.36,19,3.71-16.33.46-52.12,2.09-68.11.49-12.36,12.47-26,31.38-24.81,50.38,7.9,1.08,19.58-13.34,23.9-10.77,3.86,4.28-14.4,12.14-16.48,13.6-21,10.68-10.42-16.63-7.4-26.55-13.6,14.51-54,55.32-65,17.43-7.31,6-23,14.38-25.21-.55-4,2.38-8,7.68-13,7.4-2.72.25-7.28.23-7.19-3.27,4.22-2.75,8.62-10.38,9.1-17.49-30.92,17.07-43.71,55.88-60.62,91.54C215.09,385.73,214.07,387.6,212.3,387.6Zm82.85-92a9,9,0,0,1-1.52,2.59c3.49-.84,7.74-3.55,8.54-7.8C299.59,291.39,297.47,294.08,295.15,295.64Zm-118.67-9.12c-6.27,1.48-10.36,5.33-11.38,11.54C169.23,295.78,175.15,291.58,176.48,286.52Z"/></svg>